<svg width="45" height="39" viewBox="0 0 45 39" fill="none" xmlns="http://www.w3.org/2000/svg">
<path d="M36.3096 19.2147C36.3096 19.4279 36.3096 19.7319 36.3096 19.9964V20.0477C36.3096 20.1504 36.3096 20.2451 36.3096 20.3241C36.3096 20.4464 36.3017 20.5728 36.2978 20.7031C36.207 23.668 35.7845 26.254 35.0463 28.4569C34.308 30.6599 33.2539 32.4799 31.8879 33.9446C30.6403 35.2791 29.1638 36.3253 27.4425 37.0951C25.7211 37.865 23.7511 38.3585 21.5284 38.5599C21.5126 38.5599 21.4928 38.5678 21.477 38.5717C20.719 38.6349 19.9334 38.6704 19.1201 38.6704H17.2487C14.418 38.6704 11.9387 38.2717 9.81073 37.4899C7.67882 36.7082 5.89433 35.5475 4.42963 33.996C2.96887 32.4523 1.86344 30.4941 1.12121 28.1016C0.375045 25.7052 0 22.8745 0 19.6016C0 16.3287 0.378993 13.4585 1.12121 11.0423C1.86344 8.62615 2.96887 6.6482 4.42963 5.0848C5.89828 3.5135 7.68277 2.33699 9.81469 1.54739C11.7374 0.832806 13.9482 0.438007 16.4513 0.366943C16.0407 0.513019 15.6379 0.66699 15.251 0.840702C13.3955 1.65794 11.7808 2.79101 10.4306 4.22019C8.87901 5.85861 7.71436 7.90367 6.92871 10.3396C6.14306 12.7715 5.73246 15.5904 5.68508 18.7962C5.68508 18.9975 5.68113 19.2068 5.68113 19.4239C5.68113 19.6411 5.68114 19.8464 5.68508 20.0516C5.71667 21.7177 5.87854 23.2219 6.1628 24.5642C6.2694 25.0893 6.38783 25.5946 6.52996 26.0684C6.97608 27.541 7.60775 28.7728 8.44868 29.7479C9.37645 30.8257 10.5964 31.6311 12.0729 32.1562C12.7559 32.397 13.4981 32.5826 14.2877 32.7129C14.347 32.7208 14.4062 32.7326 14.4614 32.7405C14.497 32.7445 14.5325 32.7484 14.5641 32.7563C15.3892 32.8747 16.2618 32.934 17.1974 32.9379H19.0688C19.2978 32.9379 19.5267 32.9379 19.7478 32.9261C20.4308 32.9103 21.0783 32.8511 21.6942 32.7642C23.0088 32.5786 24.1814 32.2391 25.2079 31.7338C26.2383 31.2284 27.1187 30.5533 27.8333 29.7242C28.7769 28.6385 29.4599 27.237 29.9099 25.5394C30.36 23.8417 30.5811 21.844 30.5811 19.5463C30.5811 17.2486 30.4429 15.7959 29.9968 14.0944C29.5507 12.3967 28.8756 10.9873 27.9478 9.88579C27.2371 9.04882 26.3607 8.36977 25.3263 7.86047C25.2868 7.84468 25.2474 7.82889 25.2079 7.80915H26.0409C26.9568 7.80915 27.8057 7.87232 28.5874 7.98286C28.6071 7.98286 28.6308 7.98681 28.6545 7.99076C28.7058 7.99865 28.7611 8.0105 28.8124 8.01839C28.9427 8.03813 29.0651 8.06182 29.1914 8.08551C29.2664 8.1013 29.3375 8.11315 29.4125 8.12894C29.4322 8.13289 29.452 8.14078 29.4757 8.14473L29.5191 8.15262C29.5586 8.16052 29.5941 8.16842 29.6257 8.18026C29.6967 8.19605 29.7678 8.21184 29.8349 8.23158C30.0205 8.27896 30.2021 8.33028 30.3798 8.38555C30.4153 8.3974 30.4469 8.4053 30.4824 8.41714C30.6008 8.45662 30.7193 8.4961 30.8338 8.53558C32.1366 9.01329 33.1631 9.71603 33.9527 10.6478C34.7028 11.5361 35.3068 12.7244 35.7292 14.2088C35.824 14.5405 35.8319 14.3547 35.9069 14.7179C36.1083 15.7483 36.2385 16.8972 36.2859 18.1724C36.2859 18.3027 36.2938 18.4251 36.2978 18.5396C36.2978 18.6225 36.2978 18.7133 36.2978 18.8159C36.2978 18.9225 36.2978 19.037 36.2978 19.2265L36.3096 19.2147Z" fill="#3065EC"/>
<path d="M44.2214 19.4278C44.2214 22.7165 43.8424 25.567 43.1002 27.9831C42.3579 30.3993 41.2525 32.3773 39.7918 33.9407C38.3231 35.512 36.5386 36.6885 34.4067 37.4781C32.4603 38.2006 30.2139 38.5954 27.6793 38.6585C28.1017 38.5085 28.5202 38.3466 28.9269 38.165C30.7824 37.3359 32.3932 36.191 33.7474 34.7421C35.2397 33.1471 36.3807 31.1652 37.1584 28.828C37.9441 26.4908 38.3744 23.7943 38.4731 20.7425C38.4731 20.6241 38.481 20.4977 38.4849 20.3596C38.4849 20.2451 38.4849 20.1464 38.4849 20.0595V19.9963C38.4849 19.7239 38.4849 19.416 38.4849 19.2146C38.4849 19.037 38.4849 18.9383 38.4849 18.8119V18.7962C38.4849 18.7132 38.4849 18.6145 38.4849 18.504C38.4849 18.3619 38.477 18.2395 38.4731 18.125V18.1171C38.3981 16.1471 38.1415 14.4297 37.6993 12.9571C37.2571 11.4845 36.6215 10.2527 35.7806 9.27754C34.8528 8.19973 33.6329 7.39829 32.1563 6.86926C30.6837 6.34418 28.9545 6.0915 26.9726 6.08756H25.1013C24.1893 6.08756 23.3286 6.14678 22.5272 6.26127C21.2125 6.44682 20.04 6.78635 19.0135 7.2917C17.987 7.79704 17.1027 8.47215 16.3881 9.30122C15.4485 10.3869 14.7615 11.7885 14.3114 13.4861C13.8614 15.1837 13.6403 17.1814 13.6403 19.4792C13.6403 21.7769 13.8574 23.7706 14.3035 25.4722C14.7497 27.1699 15.0892 28.1215 16.013 29.223C16.7237 30.0599 17.6001 30.739 18.6345 31.2483C18.674 31.2641 18.7134 31.2799 18.7529 31.2996H17.8686C16.013 31.2996 14.4299 31.0509 13.127 30.5732C11.8242 30.0955 10.7977 29.3927 10.0081 28.461C9.25803 27.5727 8.98561 26.8422 8.56317 25.3577C8.14074 23.8733 7.89597 22.0888 7.85649 20.024C7.85649 19.8187 7.85254 19.6173 7.85254 19.416C7.85254 19.2146 7.85254 19.0054 7.85649 18.8041C7.89992 15.6891 8.30259 12.9847 9.04481 10.6909C9.78704 8.39713 10.8688 6.51394 12.2822 5.01765C13.5297 3.69902 15.0063 2.66464 16.7276 1.90268C18.4489 1.14072 20.419 0.655113 22.6417 0.453766C23.4313 0.382702 24.2525 0.347168 25.1052 0.347168H26.9766C29.8073 0.347168 32.2866 0.741969 34.4146 1.52367C36.5465 2.30538 38.331 3.46609 39.7997 5.01765C40.5261 5.79146 41.1696 6.66396 41.7223 7.64701C42.275 8.63006 42.7409 9.71576 43.112 10.912C43.8542 13.3084 44.2332 16.1392 44.2332 19.412L44.2214 19.4278Z" fill="#3065EC"/>
</svg>
